<?xml version="1.0" standalone="no"?>
<!DOCTYPE svg PUBLIC "-//W3C//DTD SVG 20010904//EN"
 "http://www.w3.org/TR/2001/REC-SVG-20010904/DTD/svg10.dtd">
<svg version="1.0" xmlns="http://www.w3.org/2000/svg"
 width="773.000000pt" height="847.000000pt" viewBox="0 0 773.000000 847.000000"
 preserveAspectRatio="xMidYMid meet">

<g transform="translate(0.000000,847.000000) scale(0.100000,-0.100000)"
fill="#000000" stroke="none">
<path d="M2811 7870 c-32 -15 -161 -137 -470 -446 -245 -245 -411 -418 -391
-408 19 11 37 22 38 27 2 4 10 7 18 7 8 0 14 4 14 9 0 5 14 12 30 16 17 4 30
11 30 16 0 5 7 9 15 9 8 0 15 4 15 9 0 5 12 11 28 14 15 3 37 15 49 26 12 12
27 21 34 21 10 0 69 29 79 40 3 3 24 14 47 25 24 11 43 22 43 25 0 3 20 14 45
25 25 11 45 23 45 28 0 4 7 7 15 7 8 0 15 3 15 8 0 4 20 16 45 27 25 11 45 22
45 25 0 3 20 14 44 24 25 11 43 24 40 28 -3 4 2 8 11 8 14 0 61 25 75 40 3 3
24 14 47 25 24 11 43 22 43 25 0 3 20 14 45 25 25 11 45 23 45 28 0 4 7 7 15
7 8 0 15 4 15 9 0 5 14 12 30 16 17 4 30 11 30 16 0 5 7 9 15 9 8 0 15 4 15 9
0 5 14 12 30 16 17 4 30 11 30 16 0 5 7 9 15 9 8 0 15 5 15 10 0 6 9 10 19 10
11 0 26 7 35 15 8 8 19 15 25 15 6 0 11 4 11 9 0 4 14 12 31 17 17 5 31 14 31
19 -1 14 -314 95 -392 101 -52 4 -74 0 -109 -16z"/>
<path d="M5290 7237 c25 -12 47 -24 50 -27 3 -3 23 -14 45 -25 22 -11 42 -23
43 -27 2 -5 10 -8 18 -8 8 0 14 -4 14 -9 0 -5 14 -12 30 -16 17 -4 30 -11 30
-16 0 -5 7 -9 15 -9 8 0 15 -4 15 -9 0 -5 14 -12 30 -16 17 -4 30 -11 30 -16
0 -5 7 -9 15 -9 8 0 15 -3 15 -7 0 -5 20 -17 45 -28 25 -11 45 -22 45 -25 0
-3 20 -14 45 -25 25 -11 45 -23 45 -27 0 -5 4 -8 9 -8 4 0 47 -22 95 -50 48
-27 91 -50 96 -50 6 0 10 -4 10 -9 0 -5 14 -12 30 -16 17 -4 30 -11 30 -16 0
-5 7 -9 15 -9 8 0 15 -3 15 -7 0 -11 58 -43 76 -43 8 0 14 -4 14 -8 0 -5 18
-17 40 -28 22 -10 40 -21 40 -24 0 -3 20 -14 45 -25 25 -11 45 -23 45 -27 0
-5 5 -8 11 -8 6 0 17 -7 25 -15 9 -8 24 -15 35 -15 11 0 17 -4 14 -10 -3 -5 3
-10 14 -10 12 0 21 -4 21 -8 0 -5 19 -17 42 -27 24 -10 52 -27 63 -37 11 -11
32 -22 48 -25 15 -3 27 -9 27 -14 0 -5 7 -9 15 -9 8 0 15 -4 15 -10 0 -5 12
-13 27 -16 15 -4 36 -16 47 -26 19 -18 36 -24 36 -12 0 11 -22 101 -40 159
-10 33 -28 96 -40 140 -13 44 -31 96 -41 115 -21 44 -102 96 -167 110 -56 12
-192 59 -209 72 -28 22 -537 170 -698 204 -38 7 -101 23 -140 33 -38 10 -97
26 -130 35 -32 9 -71 16 -85 16 -21 0 -18 -4 20 -23z"/>
<path d="M233 5318 c-151 -152 -182 -199 -183 -275 0 -23 32 -160 71 -305 39
-145 79 -296 90 -335 10 -40 28 -107 39 -148 11 -41 29 -109 40 -150 11 -41
30 -110 41 -152 12 -43 27 -100 34 -128 11 -42 13 80 14 793 1 463 0 842 -2
842 -1 0 -66 -64 -144 -142z"/>
<path d="M4794 5097 c-23 -28 -83 -104 -133 -167 -98 -123 -348 -455 -499
-662 -51 -69 -99 -131 -106 -137 -18 -15 -23 -8 -231 284 -98 138 -185 256
-193 263 -18 14 -82 16 -82 2 0 -9 33 -58 173 -250 205 -282 267 -371 267
-379 0 -5 -26 -45 -58 -88 -32 -43 -107 -145 -167 -228 -60 -82 -141 -193
-181 -247 -75 -99 -79 -118 -26 -118 26 0 66 38 115 110 17 25 40 57 51 71 12
14 28 36 36 48 76 113 275 376 283 376 11 0 53 -52 138 -172 279 -391 313
-433 351 -433 49 0 48 18 -1 85 -25 34 -60 82 -77 106 -17 24 -102 141 -188
258 -86 118 -156 223 -156 233 0 18 19 47 160 248 37 52 93 133 125 180 33 47
115 166 183 265 160 230 272 396 272 401 0 15 -21 -3 -56 -49z"/>
<path d="M1473 4678 c-4 -7 -9 -300 -11 -650 l-3 -637 21 -11 c11 -6 30 -8 40
-5 20 6 20 19 20 596 0 386 3 589 10 589 15 0 36 -26 121 -150 43 -63 92 -135
109 -160 17 -25 107 -155 200 -290 93 -135 184 -266 202 -292 18 -26 53 -77
78 -113 37 -54 112 -157 263 -365 124 -169 229 -301 235 -295 3 2 -1 12 -9 21
-13 16 -31 46 -45 73 -4 8 -32 51 -62 95 -30 45 -152 225 -270 401 -296 439
-490 727 -545 808 -26 38 -47 71 -47 74 0 2 -8 15 -17 28 -10 12 -24 31 -31
41 -173 258 -165 249 -209 252 -26 2 -44 -2 -50 -10z"/>
<path d="M2582 4678 c-9 -9 -12 -165 -12 -654 l0 -642 23 -6 c12 -3 207 -6
434 -6 367 0 413 2 428 16 9 9 14 23 11 31 -3 8 -6 17 -6 19 0 2 -175 4 -388
4 -295 0 -392 3 -405 13 -16 11 -17 37 -15 287 l3 275 366 3 c392 2 399 3 384
52 -6 20 -12 20 -369 20 -296 0 -366 3 -375 14 -8 9 -11 87 -9 262 l3 249 395
5 395 5 0 30 0 30 -425 3 c-323 2 -429 -1 -438 -10z"/>
<path d="M4631 4676 c-9 -11 -10 -20 -1 -35 10 -20 19 -21 223 -21 152 0 216
-3 225 -12 9 -9 12 -160 12 -620 l0 -608 25 -6 c57 -14 55 -35 57 630 l3 611
225 5 225 5 0 30 0 30 -491 3 c-419 2 -493 0 -503 -12z"/>
<path d="M7351 3535 l-1 -860 140 140 c227 226 227 227 145 530 -31 116 -65
243 -76 283 -10 39 -28 107 -40 150 -11 42 -29 109 -39 147 -11 39 -44 160
-74 270 l-55 200 0 -860z"/>
<path d="M6114 3726 c-36 -16 -74 -61 -74 -88 0 -42 27 -73 82 -92 88 -30 118
-48 118 -73 0 -28 -35 -53 -75 -53 -16 0 -48 11 -70 24 -28 17 -43 21 -52 14
-35 -29 52 -88 129 -88 45 0 54 4 89 39 69 68 44 131 -67 165 -83 26 -89 30
-92 62 -7 57 53 70 131 29 41 -22 48 -23 53 -10 8 21 -13 45 -61 66 -47 22
-69 23 -111 5z"/>
<path d="M5907 3723 c-4 -3 -7 -64 -7 -135 0 -115 -2 -130 -20 -148 -11 -11
-28 -20 -38 -20 -11 0 -29 9 -42 20 -30 26 -60 26 -60 1 0 -23 47 -59 88 -67
41 -8 90 20 108 61 17 41 20 246 4 276 -11 20 -22 24 -33 12z"/>
<path d="M5621 3421 c-13 -23 10 -47 34 -37 20 7 19 42 -1 50 -22 8 -22 8 -33
-13z"/>
<path d="M930 1707 c0 -22 102 -354 117 -379 44 -75 72 -86 468 -192 204 -55
411 -110 460 -123 191 -51 225 -59 225 -51 0 4 -7 8 -15 8 -8 0 -15 4 -15 9 0
5 -14 12 -30 16 -17 4 -28 11 -24 16 3 5 -4 9 -15 9 -12 0 -21 3 -21 8 0 4
-17 16 -37 27 -21 11 -40 22 -43 25 -3 3 -23 14 -45 25 -22 11 -48 28 -60 38
-11 10 -30 20 -42 23 -13 4 -23 10 -23 15 0 5 -7 9 -15 9 -8 0 -15 4 -15 9 0
5 -14 12 -31 16 -17 4 -28 9 -25 12 3 3 -11 15 -32 26 -20 11 -39 22 -42 26
-3 3 -21 15 -40 25 -19 11 -44 24 -54 30 -11 6 -29 19 -40 29 -11 10 -31 20
-43 23 -13 4 -23 10 -23 15 0 5 -7 9 -15 9 -8 0 -15 4 -15 10 0 5 -11 12 -25
16 -14 3 -25 10 -25 15 0 5 -7 9 -15 9 -8 0 -15 4 -15 9 0 5 -14 12 -30 16
-17 4 -28 10 -26 14 3 4 -15 16 -40 27 -24 10 -44 22 -44 27 0 4 -7 7 -15 7
-8 0 -15 5 -15 10 0 6 -6 10 -14 10 -7 0 -19 7 -26 15 -7 8 -19 15 -27 15 -7
0 -24 9 -36 20 -12 12 -32 23 -44 26 -13 4 -23 10 -23 15 0 5 -6 9 -14 9 -8 0
-16 4 -18 9 -3 10 -58 27 -58 18z"/>
<path d="M5705 1052 c-16 -9 -31 -20 -33 -24 -2 -5 -10 -8 -18 -8 -8 0 -14 -4
-14 -9 0 -5 -13 -12 -30 -16 -16 -4 -30 -11 -30 -16 0 -5 -6 -9 -14 -9 -8 0
-16 -3 -18 -7 -1 -5 -21 -17 -43 -28 -22 -11 -42 -22 -45 -25 -3 -3 -23 -14
-45 -25 -22 -11 -42 -22 -45 -25 -3 -3 -23 -14 -45 -25 -22 -11 -42 -22 -45
-25 -3 -3 -24 -14 -47 -25 -24 -11 -43 -23 -43 -27 0 -5 -7 -8 -15 -8 -8 0
-15 -3 -15 -7 0 -5 -20 -17 -44 -27 -25 -11 -43 -24 -40 -28 3 -4 -2 -8 -10
-8 -18 0 -96 -40 -81 -41 6 0 -1 -5 -15 -11 -14 -6 -28 -10 -32 -10 -5 1 -8
-3 -8 -8 0 -6 -7 -10 -15 -10 -8 0 -15 -3 -15 -8 0 -4 -20 -16 -45 -27 -25
-11 -45 -23 -45 -27 0 -5 -7 -8 -15 -8 -8 0 -15 -4 -15 -9 0 -5 -11 -12 -25
-15 -14 -4 -25 -11 -25 -16 0 -6 -7 -10 -15 -10 -8 0 -15 -4 -15 -10 0 -5 -9
-10 -19 -10 -11 0 -26 -7 -35 -15 -8 -8 -19 -15 -25 -15 -6 0 -11 -4 -11 -9 0
-5 -13 -12 -30 -16 -16 -4 -30 -11 -30 -16 0 -5 -7 -9 -15 -9 -8 0 -15 -4 -15
-9 0 -5 -12 -12 -27 -16 -26 -7 -26 -8 -8 -15 57 -24 316 -83 358 -82 86 2
120 30 523 433 208 208 377 379 374 379 -3 0 -18 -8 -35 -18z"/>
</g>
</svg>
